<svg width="645" height="114" viewBox="0 0 645 114" fill="none" xmlns="http://www.w3.org/2000/svg">
<path d="M79.5884 59.8608H60.5066C59.1651 56.5302 57.0835 53.8934 54.2617 51.9505C51.4399 50.0077 48.5024 49.0362 45.4494 49.0362C43.3677 49.0362 41.7024 49.4294 40.4534 50.2158C39.2507 50.956 38.6493 52.0893 38.6493 53.6159C38.6493 55.5125 39.7133 56.9465 41.8412 57.9179C43.9691 58.8431 46.629 59.6758 49.8208 60.4159C53.0589 61.1561 56.5515 62.0581 60.2985 63.1221C64.0454 64.1398 67.5148 65.62 70.7067 67.5629C73.9448 69.5058 76.6278 72.1194 78.7558 75.4038C80.8837 78.6882 81.9476 83.0134 81.9476 88.3794C81.9476 92.5427 81.0224 96.174 79.1721 99.2734C77.3217 102.373 74.7775 104.917 71.5394 106.906C68.3475 108.895 64.5774 110.376 60.2291 111.347C55.8807 112.365 51.1855 112.873 46.1432 112.873C41.2398 112.873 36.5908 112.388 32.1962 111.416C27.8479 110.491 23.6845 108.895 19.7063 106.629L19.0124 111.416H0.693883V83.5916H19.7063C21.5104 87.2923 23.7771 90.1604 26.5063 92.1958C29.2819 94.2312 32.335 95.2489 35.6656 95.2489C38.2098 95.2489 40.0139 94.7863 41.0779 93.8611C42.1881 92.8897 42.7432 91.8257 42.7432 90.6692C42.7432 88.7726 41.6793 87.3155 39.5513 86.2978C37.4234 85.2338 34.7867 84.3086 31.6411 83.5222C28.5417 82.6896 25.1186 81.7875 21.3716 80.8161C17.6246 79.7984 14.1783 78.3412 11.0327 76.4446C7.9334 74.548 5.31977 72.0038 3.19186 68.8119C1.06395 65.5738 0 61.3411 0 56.1138C0 52.3669 0.83266 48.9437 2.49798 45.8444C4.20956 42.745 6.63815 40.1314 9.78375 38.0035C12.9294 35.8756 16.6301 34.2565 20.8859 33.1463C25.1417 31.9898 29.8139 31.4116 34.9023 31.4116C40.5922 31.4116 45.7038 32.0592 50.2372 33.3545C54.8168 34.6035 58.2399 35.9912 60.5066 37.5178L61.2005 32.5912H79.5884V59.8608Z" fill="white"/>
<path d="M128.23 77.0691C128.415 83.9617 129.71 88.7264 132.115 91.3631C134.567 93.9536 138.06 95.2489 142.593 95.2489C144.12 95.2489 145.6 95.0407 147.034 94.6244C148.514 94.1618 149.879 93.4448 151.128 92.4733C152.377 91.4556 153.441 90.1373 154.32 88.5182C155.245 86.8529 155.846 84.7712 156.124 82.2732H181.381C180.456 88.2406 178.744 93.2366 176.246 97.2611C173.795 101.286 170.626 104.547 166.74 107.045C162.854 109.497 158.321 111.254 153.14 112.318C148.005 113.429 142.269 113.984 135.932 113.984C129.409 113.984 123.28 113.151 117.544 111.486C111.808 109.82 106.766 107.299 102.417 103.922C98.1151 100.499 94.7382 96.2203 92.2865 91.0856C89.8348 85.9046 88.6089 79.7521 88.6089 72.6283C88.6089 65.8282 89.7654 59.8608 92.0783 54.7261C94.3913 49.5913 97.6294 45.3124 101.793 41.8892C106.002 38.4198 110.952 35.8062 116.642 34.0484C122.378 32.2905 128.669 31.4116 135.515 31.4116C143.935 31.4116 151.174 32.5218 157.234 34.7422C163.294 36.9627 168.244 40.062 172.083 44.0403C175.923 48.0185 178.744 52.8063 180.548 58.4037C182.353 64.001 183.208 70.2228 183.116 77.0691H128.23ZM138.499 50.1464C135.261 50.1464 132.856 51.3029 131.283 53.6159C129.756 55.8825 128.738 59.6526 128.23 64.9262H148.56C148.283 60.3928 147.311 56.8077 145.646 54.171C143.981 51.488 141.598 50.1464 138.499 50.1464Z" fill="white"/>
<path d="M233.006 34.5341L231.826 53.6159H233.006C234.625 46.307 237.308 40.779 241.055 37.0321C244.848 33.2851 249.752 31.4116 255.765 31.4116C259.327 31.4116 262.38 31.9898 264.925 33.1463C267.515 34.2565 269.597 35.7599 271.17 37.6565C272.742 39.5532 273.876 41.7505 274.57 44.2484C275.264 46.7002 275.61 49.2444 275.61 51.8812C275.61 54.0553 275.287 56.2064 274.639 58.3343C273.991 60.4622 272.951 62.3819 271.517 64.0935C270.083 65.8051 268.232 67.1928 265.965 68.2568C263.699 69.2745 260.9 69.7833 257.569 69.7833C252.944 69.7833 249.289 68.6037 246.606 66.2445C243.969 63.8853 242.651 61.0404 242.651 57.7098C242.651 56.0907 242.836 54.7261 243.206 53.6159C243.576 52.4594 243.946 51.5342 244.316 50.8403C244.733 50.1002 245.01 49.5682 245.149 49.2444C245.288 48.9206 245.126 48.7587 244.663 48.7587C243.692 48.7587 242.628 49.8689 241.471 52.0893C240.361 54.3097 239.806 57.8023 239.806 62.567V78.4569C239.806 80.9086 240.222 82.6664 241.055 83.7304C241.934 84.7481 243.599 85.2569 246.051 85.2569H250.214V111H191.789V85.2569H195.883C197.78 85.2569 199.214 84.6556 200.185 83.4528C201.203 82.2038 201.712 80.7236 201.712 79.012V65.8282C201.712 63.654 201.064 62.1969 199.769 61.4567C198.52 60.6703 197.086 60.2771 195.467 60.2771H191.789V34.5341H233.006Z" fill="white"/>
<path d="M328.965 109.721C327.259 111.332 323.375 112.137 317.312 112.137C311.249 112.137 306.228 111.758 302.249 111C298.27 110.147 294.48 108.537 290.88 106.168C283.964 101.526 280.506 91.8629 280.506 77.1785V55.0097H273.401C272.359 55.0097 271.459 53.9202 270.701 51.7413C269.943 49.5623 269.564 46.578 269.564 42.7885C269.564 38.999 270.132 35.6831 271.269 32.841C272.501 29.9041 274.064 28.4357 275.959 28.4357H280.506V11.2407C280.506 8.3038 283.348 5.93534 289.033 4.13531C294.812 2.33529 300.449 1.43528 305.943 1.43528C314.565 1.43528 318.875 3.56689 318.875 7.83011V28.4357H329.391C331.854 28.4357 333.086 31.9883 333.086 39.0937C333.086 43.7359 332.517 47.5728 331.381 50.6044C330.338 53.5413 328.965 55.0097 327.259 55.0097H318.875V81.0154C318.875 83.5733 319.965 85.4207 322.144 86.5576C324.323 87.5997 326.217 88.1207 327.828 88.1207C329.533 88.1207 330.575 88.926 330.954 90.5366C331.333 92.1471 331.523 94.5629 331.523 97.784C331.523 104.131 330.67 108.11 328.965 109.721Z" fill="white"/>
<path d="M367.962 112.279C359.341 112.279 352.615 110.242 347.783 106.168C345.699 104.463 343.899 101.953 342.383 98.6367C340.962 95.3208 340.251 91.4366 340.251 86.9839C340.251 82.5312 341.293 78.6469 343.378 75.3311C345.557 72.0152 348.162 69.4573 351.193 67.6573C354.225 65.8573 357.778 64.3888 361.851 63.252C368.009 61.6414 374.783 60.8361 382.173 60.8361H386.862C386.862 56.9519 385.489 54.2045 382.741 52.5939C381.699 51.9307 379.994 51.5992 377.625 51.5992C375.352 51.5992 372.557 52.215 369.241 53.4465C366.02 54.6781 363.32 55.9571 361.141 57.2834C358.962 58.515 357.494 59.1308 356.736 59.1308C355.03 59.1308 352.709 56.9045 349.772 52.4518C346.835 47.9044 345.367 43.7833 345.367 40.0885C345.367 38.8569 347.12 37.2463 350.625 35.2568C354.13 33.2673 359.057 31.4673 365.404 29.8567C371.846 28.1514 378.099 27.2988 384.162 27.2988C390.226 27.2988 395.436 27.8199 399.794 28.862C404.247 29.8094 407.847 30.9936 410.594 32.4147C413.436 33.8357 415.805 35.7305 417.7 38.099C419.689 40.4674 421.158 42.599 422.105 44.4938C423.147 46.3886 423.952 48.8517 424.521 51.8834C425.089 55.3887 425.373 59.6993 425.373 64.8151V107.589C425.373 108.632 422.815 109.484 417.7 110.147C412.679 110.716 407.657 111 402.636 111C397.71 111 394.489 110.858 392.973 110.574C391.552 110.289 390.699 109.958 390.415 109.579C390.131 109.2 389.894 108.537 389.705 107.589L388.568 99.4893H387.431C385.062 108.016 378.573 112.279 367.962 112.279ZM387.004 88.6892V72.0626C384.541 72.0626 382.552 73.1047 381.036 75.189C379.52 77.2732 378.762 79.6417 378.762 82.2943C378.762 88.5471 380.183 91.6734 383.025 91.6734C384.257 91.6734 385.204 91.3892 385.868 90.8208C386.626 90.1576 387.004 89.4471 387.004 88.6892ZM418.979 13.0881C418.979 14.5092 416.515 16.7355 411.589 19.7671C406.757 22.7987 402.494 24.3146 398.799 24.3146C395.199 24.3146 390.841 23.5093 385.726 21.8987C380.704 20.1934 377.436 19.3408 375.92 19.3408C374.499 19.3408 371.704 20.1934 367.536 21.8987C363.367 23.5093 360.43 24.3146 358.725 24.3146C357.02 24.3146 355.22 22.6566 353.325 19.3408C351.525 15.9302 350.625 13.3249 350.625 11.5249C350.625 9.91435 353.183 7.64063 358.299 4.70375C363.509 1.67212 367.82 0.156311 371.231 0.156311C374.641 0.156311 378.81 0.961587 383.736 2.57214C388.757 4.18268 392.357 4.98796 394.536 4.98796C395.199 4.98796 397.52 4.18268 401.499 2.57214C405.573 0.961587 408.51 0.156311 410.31 0.156311C412.205 0.156311 414.1 1.90897 415.994 5.41428C417.984 8.91959 418.979 11.4775 418.979 13.0881Z" fill="white"/>
<path d="M479.116 112.279C472.01 112.279 465.9 111.663 460.784 110.432C455.668 109.2 451.026 107.021 446.857 103.895C438.236 97.6419 433.925 85.9891 433.925 68.9362C433.925 53.7781 438.331 42.9306 447.141 36.3937C455.384 30.3304 466.042 27.2988 479.116 27.2988C484.705 27.2988 489.489 27.583 493.468 28.1515C497.447 28.6251 501.474 29.7146 505.548 31.4199C509.716 33.1252 513.032 35.4463 515.495 38.3832C518.053 41.3201 520.137 45.3938 521.748 50.6044C523.358 55.7203 524.164 61.8309 524.164 68.9362C524.164 83.3365 520.09 94.184 511.942 101.479C503.795 108.679 492.853 112.279 479.116 112.279ZM474.142 84.5681C474.805 87.9786 475.468 90.0155 476.131 90.6787C476.889 91.3418 477.837 91.6734 478.973 91.6734C480.205 91.6734 481.152 91.3418 481.816 90.6787C482.573 90.0155 483.237 87.9786 483.805 84.5681C484.468 81.1575 484.8 76.8942 484.8 71.7784C484.8 66.5678 484.658 62.5888 484.374 59.8414C484.184 56.9992 483.9 54.8203 483.521 53.3044C483.237 51.7886 482.81 50.6044 482.242 49.7518C481.389 48.5202 480.347 47.9044 479.116 47.9044C477.979 47.9044 477.031 48.2833 476.273 49.0412C475.516 49.7044 474.805 51.7886 474.142 55.2939C473.479 58.7045 473.147 63.5835 473.147 69.931C473.147 76.2785 473.479 81.1575 474.142 84.5681Z" fill="white"/>
<path d="M516.985 111.995V24.7409H514.853L516.274 11.5249H538.727C542.706 11.5249 545.927 12.7565 548.391 15.2197C550.854 17.5881 552.085 20.7619 552.085 24.7409V54.5834C552.085 55.9097 551.896 57.1887 551.517 58.4203C553.791 60.8835 554.928 64.0099 554.928 67.7994V98.7788C554.928 102.758 553.412 105.979 550.38 108.442C547.443 110.811 543.985 111.995 540.006 111.995H516.985ZM537.875 24.7409H530.485V54.5834H537.875C538.348 54.5834 538.585 54.3466 538.585 53.8729V25.4514C538.585 24.9777 538.348 24.7409 537.875 24.7409ZM540.717 67.7994H530.485V98.7788H540.717C541.191 98.7788 541.427 98.5419 541.427 98.0682V68.5099C541.427 68.0362 541.191 67.7994 540.717 67.7994Z" fill="white"/>
<path d="M572.64 111H559.14L566.814 24.7409H564.256L565.677 11.5249H591.682L600.493 111H586.993L585.43 93.9471H574.203L572.64 111ZM575.34 80.7312H584.293L579.887 31.2778L575.34 80.7312Z" fill="white"/>
<path d="M603.271 24.7409L604.692 11.5249H627.145C631.124 11.5249 634.345 12.7565 636.808 15.2197C639.271 17.5881 640.503 20.7619 640.503 24.7409V69.2205C640.503 71.3047 640.077 73.1995 639.224 74.9048C638.371 76.5153 637.234 77.889 635.813 79.0259L644.908 111H631.266L623.166 82.4364H618.903V111H605.402V24.7409H603.271ZM626.292 24.7409H618.903V69.2205H626.292C626.766 69.2205 627.003 68.9836 627.003 68.5099V25.4514C627.003 24.9777 626.766 24.7409 626.292 24.7409Z" fill="white"/>
</svg>
