<svg width="350" height="260" viewBox="0 0 350 260" fill="none" xmlns="http://www.w3.org/2000/svg">
<path d="M80.4456 28.8608H61.3638C60.0223 25.5302 57.9406 22.8934 55.1189 20.9505C52.2971 19.0077 49.3596 18.0362 46.3065 18.0362C44.2249 18.0362 42.5596 18.4294 41.3106 19.2158C40.1078 19.956 39.5065 21.0893 39.5065 22.6159C39.5065 24.5125 40.5704 25.9465 42.6983 26.9179C44.8262 27.8431 47.4861 28.6758 50.678 29.4159C53.9161 30.1561 57.4087 31.0581 61.1556 32.1221C64.9026 33.1398 68.372 34.62 71.5639 36.5629C74.802 38.5058 77.485 41.1194 79.6129 44.4038C81.7408 47.6882 82.8048 52.0134 82.8048 57.3794C82.8048 61.5427 81.8796 65.174 80.0293 68.2734C78.1789 71.3727 75.6347 73.917 72.3965 75.9061C69.2047 77.8952 65.4346 79.3755 61.0862 80.3469C56.7379 81.3646 52.0426 81.8735 47.0004 81.8735C42.097 81.8735 37.448 81.3878 33.0534 80.4163C28.705 79.4912 24.5417 77.8952 20.5635 75.6285L19.8696 80.4163H1.55106V52.5916H20.5635C22.3676 56.2923 24.6342 59.1604 27.3635 61.1958C30.1391 63.2312 33.1921 64.2489 36.5228 64.2489C39.067 64.2489 40.8711 63.7863 41.9351 62.8611C43.0453 61.8897 43.6004 60.8257 43.6004 59.6692C43.6004 57.7726 42.5364 56.3155 40.4085 55.2978C38.2806 54.2338 35.6439 53.3086 32.4983 52.5222C29.3989 51.6896 25.9758 50.7875 22.2288 49.8161C18.4818 48.7984 15.0355 47.3412 11.8899 45.4446C8.79058 43.548 6.17695 41.0038 4.04904 37.8119C1.92113 34.5738 0.857178 30.3411 0.857178 25.1138C0.857178 21.3669 1.68984 17.9437 3.35516 14.8444C5.06674 11.745 7.49533 9.13139 10.6409 7.00348C13.7865 4.87557 17.4872 3.25651 21.7431 2.1463C25.9989 0.989827 30.671 0.411591 35.7595 0.411591C41.4493 0.411591 46.561 1.05921 51.0943 2.35446C55.674 3.60345 59.0971 4.99122 61.3638 6.51776L62.0577 1.59119H80.4456V28.8608Z" fill="white"/>
<path d="M129.087 46.0691C129.272 52.9617 130.567 57.7263 132.973 60.3631C135.424 62.9536 138.917 64.2489 143.45 64.2489C144.977 64.2489 146.457 64.0407 147.891 63.6244C149.371 63.1618 150.736 62.4448 151.985 61.4733C153.234 60.4556 154.298 59.1372 155.177 57.5182C156.102 55.8529 156.703 53.7712 156.981 51.2732H182.238C181.313 57.2406 179.602 62.2366 177.104 66.2611C174.652 70.2856 171.483 73.5469 167.597 76.0449C163.712 78.4966 159.178 80.2544 153.997 81.3184C148.862 82.4286 143.126 82.9837 136.789 82.9837C130.266 82.9837 124.137 82.151 118.401 80.4857C112.665 78.8204 107.623 76.2993 103.274 72.9224C98.9723 69.4992 95.5954 65.2203 93.1437 60.0856C90.6919 54.9046 89.4661 48.7521 89.4661 41.6283C89.4661 34.8282 90.6226 28.8608 92.9355 23.7261C95.2484 18.5913 98.4866 14.3124 102.65 10.8892C106.859 7.41981 111.809 4.80618 117.499 3.04835C123.235 1.29051 129.526 0.411591 136.373 0.411591C144.792 0.411591 152.031 1.5218 158.091 3.74223C164.151 5.96266 169.101 9.062 172.94 13.0403C176.78 17.0185 179.602 21.8063 181.406 27.4037C183.21 33.001 184.065 39.2228 183.973 46.0691H129.087ZM139.356 19.1464C136.118 19.1464 133.713 20.3029 132.14 22.6159C130.613 24.8825 129.596 28.6526 129.087 33.9262H149.418C149.14 29.3928 148.169 25.8077 146.503 23.171C144.838 20.4879 142.456 19.1464 139.356 19.1464Z" fill="white"/>
<path d="M233.863 3.53407L232.684 22.6159H233.863C235.482 15.307 238.165 9.77901 241.912 6.03205C245.705 2.28508 250.609 0.411591 256.623 0.411591C260.185 0.411591 263.238 0.989827 265.782 2.1463C268.372 3.25651 270.454 4.75993 272.027 6.65654C273.6 8.55315 274.733 10.7505 275.427 13.2484C276.121 15.7002 276.468 18.2444 276.468 20.8811C276.468 23.0553 276.144 25.2064 275.496 27.3343C274.849 29.4622 273.808 31.3819 272.374 33.0935C270.94 34.8051 269.089 36.1928 266.823 37.2568C264.556 38.2745 261.757 38.7833 258.427 38.7833C253.801 38.7833 250.146 37.6037 247.463 35.2445C244.827 32.8853 243.508 30.0404 243.508 26.7098C243.508 25.0907 243.693 23.7261 244.063 22.6159C244.433 21.4594 244.803 20.5342 245.173 19.8403C245.59 19.1002 245.867 18.5682 246.006 18.2444C246.145 17.9206 245.983 17.7587 245.52 17.7587C244.549 17.7587 243.485 18.8689 242.329 21.0893C241.218 23.3097 240.663 26.8023 240.663 31.5669V47.4569C240.663 49.9086 241.08 51.6664 241.912 52.7304C242.791 53.7481 244.456 54.2569 246.908 54.2569H251.072V80H192.647V54.2569H196.74C198.637 54.2569 200.071 53.6556 201.043 52.4528C202.06 51.2038 202.569 49.7236 202.569 48.012V34.8282C202.569 32.654 201.921 31.1969 200.626 30.4567C199.377 29.6703 197.943 29.2771 196.324 29.2771H192.647V3.53407H233.863Z" fill="white"/>
<path d="M153.822 173.721C152.117 175.332 148.232 176.137 142.169 176.137C136.106 176.137 131.085 175.758 127.106 175C123.127 174.147 119.337 172.537 115.737 170.168C108.821 165.526 105.363 155.863 105.363 141.178V119.01H98.258C97.2158 119.01 96.3158 117.92 95.5579 115.741C94.8 113.562 94.4211 110.578 94.4211 106.788C94.4211 102.999 94.9895 99.6831 96.1264 96.841C97.358 93.9041 98.9211 92.4357 100.816 92.4357H105.363V75.2407C105.363 72.3038 108.205 69.9353 113.89 68.1353C119.669 66.3353 125.306 65.4353 130.801 65.4353C139.422 65.4353 143.732 67.5669 143.732 71.8301V92.4357H154.248C156.711 92.4357 157.943 95.9883 157.943 103.094C157.943 107.736 157.375 111.573 156.238 114.604C155.196 117.541 153.822 119.01 152.117 119.01H143.732V145.015C143.732 147.573 144.822 149.421 147.001 150.558C149.18 151.6 151.075 152.121 152.685 152.121C154.39 152.121 155.432 152.926 155.811 154.537C156.19 156.147 156.38 158.563 156.38 161.784C156.38 168.131 155.527 172.11 153.822 173.721Z" fill="white"/>
<path d="M192.819 176.279C184.198 176.279 177.472 174.242 172.64 170.168C170.556 168.463 168.756 165.953 167.24 162.637C165.819 159.321 165.108 155.437 165.108 150.984C165.108 146.531 166.15 142.647 168.235 139.331C170.414 136.015 173.019 133.457 176.051 131.657C179.082 129.857 182.635 128.389 186.709 127.252C192.867 125.641 199.64 124.836 207.03 124.836H211.72C211.72 120.952 210.346 118.204 207.598 116.594C206.556 115.931 204.851 115.599 202.483 115.599C200.209 115.599 197.414 116.215 194.098 117.447C190.877 118.678 188.177 119.957 185.998 121.283C183.819 122.515 182.351 123.131 181.593 123.131C179.887 123.131 177.566 120.904 174.63 116.452C171.693 111.904 170.224 107.783 170.224 104.088C170.224 102.857 171.977 101.246 175.482 99.2568C178.987 97.2673 183.914 95.4673 190.261 93.8567C196.704 92.1514 202.956 91.2988 209.02 91.2988C215.083 91.2988 220.293 91.8199 224.651 92.862C229.104 93.8094 232.704 94.9936 235.451 96.4147C238.294 97.8357 240.662 99.7305 242.557 102.099C244.546 104.467 246.015 106.599 246.962 108.494C248.004 110.389 248.81 112.852 249.378 115.883C249.946 119.389 250.231 123.699 250.231 128.815V171.589C250.231 172.632 247.673 173.484 242.557 174.147C237.536 174.716 232.515 175 227.493 175C222.567 175 219.346 174.858 217.83 174.574C216.409 174.289 215.556 173.958 215.272 173.579C214.988 173.2 214.751 172.537 214.562 171.589L213.425 163.489H212.288C209.92 172.016 203.43 176.279 192.819 176.279ZM211.862 152.689V136.063C209.398 136.063 207.409 137.105 205.893 139.189C204.377 141.273 203.619 143.642 203.619 146.294C203.619 152.547 205.04 155.673 207.883 155.673C209.114 155.673 210.062 155.389 210.725 154.821C211.483 154.158 211.862 153.447 211.862 152.689ZM243.836 77.0881C243.836 78.5091 241.373 80.7355 236.446 83.7671C231.615 86.7987 227.351 88.3146 223.657 88.3146C220.057 88.3146 215.699 87.5093 210.583 85.8987C205.562 84.1934 202.293 83.3408 200.777 83.3408C199.356 83.3408 196.561 84.1934 192.393 85.8987C188.224 87.5093 185.288 88.3146 183.582 88.3146C181.877 88.3146 180.077 86.6566 178.182 83.3408C176.382 79.9302 175.482 77.3249 175.482 75.5249C175.482 73.9143 178.04 71.6406 183.156 68.7037C188.367 65.6721 192.677 64.1563 196.088 64.1563C199.498 64.1563 203.667 64.9616 208.593 66.5721C213.614 68.1827 217.214 68.988 219.393 68.988C220.057 68.988 222.378 68.1827 226.357 66.5721C230.43 64.9616 233.367 64.1563 235.167 64.1563C237.062 64.1563 238.957 65.909 240.852 69.4143C242.841 72.9196 243.836 75.4775 243.836 77.0881Z" fill="white"/>
<path d="M303.973 176.279C296.867 176.279 290.757 175.663 285.641 174.432C280.525 173.2 275.883 171.021 271.714 167.895C263.093 161.642 258.783 149.989 258.783 132.936C258.783 117.778 263.188 106.931 271.999 100.394C280.241 94.3304 290.899 91.2988 303.973 91.2988C309.562 91.2988 314.347 91.583 318.326 92.1515C322.305 92.6251 326.331 93.7146 330.405 95.4199C334.573 97.1252 337.889 99.4463 340.352 102.383C342.91 105.32 344.994 109.394 346.605 114.604C348.215 119.72 349.021 125.831 349.021 132.936C349.021 147.336 344.947 158.184 336.799 165.479C328.652 172.679 317.71 176.279 303.973 176.279ZM298.999 148.568C299.662 151.979 300.325 154.016 300.988 154.679C301.746 155.342 302.694 155.673 303.831 155.673C305.062 155.673 306.01 155.342 306.673 154.679C307.431 154.016 308.094 151.979 308.662 148.568C309.325 145.157 309.657 140.894 309.657 135.778C309.657 130.568 309.515 126.589 309.231 123.841C309.041 120.999 308.757 118.82 308.378 117.304C308.094 115.789 307.668 114.604 307.099 113.752C306.246 112.52 305.204 111.904 303.973 111.904C302.836 111.904 301.888 112.283 301.131 113.041C300.373 113.704 299.662 115.789 298.999 119.294C298.336 122.705 298.004 127.584 298.004 133.931C298.004 140.278 298.336 145.157 298.999 148.568Z" fill="white"/>
<path d="M44.8421 259.995V172.741H42.7105L44.1316 159.525H66.5846C70.5636 159.525 73.7847 160.756 76.2479 163.22C78.7111 165.588 79.9426 168.762 79.9426 172.741V202.583C79.9426 203.91 79.7532 205.189 79.3742 206.42C81.6479 208.883 82.7848 212.01 82.7848 215.799V246.779C82.7848 250.758 81.269 253.979 78.2374 256.442C75.3005 258.811 71.8425 259.995 67.8635 259.995H44.8421ZM65.7319 172.741H58.3423V202.583H65.7319C66.2056 202.583 66.4425 202.347 66.4425 201.873V173.451C66.4425 172.978 66.2056 172.741 65.7319 172.741ZM68.5741 215.799H58.3423V246.779H68.5741C69.0478 246.779 69.2846 246.542 69.2846 246.068V216.51C69.2846 216.036 69.0478 215.799 68.5741 215.799Z" fill="white"/>
<path d="M100.497 259H86.9969L94.6707 172.741H92.1128L93.5339 159.525H119.54L128.35 259H114.85L113.287 241.947H102.06L100.497 259ZM103.197 228.731H112.15L107.745 179.278L103.197 228.731Z" fill="white"/>
<path d="M131.128 172.741L132.549 159.525H155.002C158.981 159.525 162.202 160.756 164.665 163.22C167.128 165.588 168.36 168.762 168.36 172.741V217.22C168.36 219.305 167.934 221.199 167.081 222.905C166.228 224.515 165.092 225.889 163.67 227.026L172.765 259H159.123L151.023 230.436H146.76V259H133.26V172.741H131.128ZM154.149 172.741H146.76V217.22H154.149C154.623 217.22 154.86 216.984 154.86 216.51V173.451C154.86 172.978 154.623 172.741 154.149 172.741Z" fill="white"/>
</svg>
